<svg width="24" height="24" viewBox="0 0 24 24" fill="none" xmlns="http://www.w3.org/2000/svg">
<path d="M3.14405 12.9858C2.94191 12.6968 2.8335 12.3527 2.8335 12C2.8335 11.6473 2.94191 11.3031 3.14405 11.0141C4.45489 9.15831 7.68239 5.33331 11.9999 5.33331C16.3174 5.33331 19.5449 9.15831 20.8557 11.0141C21.0579 11.3031 21.1663 11.6473 21.1663 12C21.1663 12.3527 21.0579 12.6968 20.8557 12.9858C19.5449 14.8416 16.3174 18.6666 11.9999 18.6666C7.68239 18.6666 4.45489 14.8416 3.14405 12.9858Z" stroke="#15AE62" stroke-width="1.5" stroke-miterlimit="10" stroke-linecap="square"/>
<path d="M11.9998 15.3333C13.8408 15.3333 15.3332 13.8409 15.3332 12C15.3332 10.159 13.8408 8.66663 11.9998 8.66663C10.1589 8.66663 8.6665 10.159 8.6665 12C8.6665 13.8409 10.1589 15.3333 11.9998 15.3333Z" stroke="#15AE62" stroke-width="1.5" stroke-miterlimit="10" stroke-linecap="square"/>
<path d="M3.6665 20.3333L20.3332 3.66663" stroke="#15AE62" stroke-width="1.5" stroke-miterlimit="10" stroke-linecap="square"/>
</svg>
